<?xml version="1.0" encoding="UTF-8" standalone="no"?>
<!DOCTYPE svg PUBLIC "-//W3C//DTD SVG 1.1//EN" "http://www.w3.org/Graphics/SVG/1.1/DTD/svg11.dtd">
<svg width="100%" height="100%" viewBox="0 0 200 200" version="1.1" xmlns="http://www.w3.org/2000/svg" xmlns:xlink="http://www.w3.org/1999/xlink" xml:space="preserve" xmlns:serif="http://www.serif.com/" style="fill-rule:evenodd;clip-rule:evenodd;stroke-linejoin:round;stroke-miterlimit:1.41421;">
    <g transform="matrix(1.99766,0,0,1.99766,0,1.78188)">
        <path d="M93.402,25.263C88.926,17.595 82.852,11.524 75.184,7.048C67.512,2.571 59.141,0.333 50.059,0.333C40.977,0.333 32.602,2.571 24.93,7.048C17.262,11.524 11.191,17.595 6.715,25.263C2.238,32.934 0,41.309 0,50.391C0,61.298 3.184,71.106 9.547,79.817C15.914,88.528 24.137,94.559 34.219,97.903C35.391,98.122 36.262,97.97 36.824,97.45C37.391,96.927 37.672,96.274 37.672,95.493C37.672,95.364 37.66,94.192 37.641,91.973C37.617,89.759 37.605,87.825 37.605,86.173L36.109,86.434C35.152,86.61 33.945,86.684 32.492,86.661C31.035,86.641 29.523,86.489 27.961,86.204C26.395,85.923 24.941,85.274 23.594,84.251C22.246,83.231 21.293,81.895 20.727,80.243L20.074,78.743C19.641,77.743 18.957,76.638 18.023,75.419C17.086,74.204 16.141,73.376 15.188,72.942L14.73,72.618C14.426,72.399 14.145,72.138 13.883,71.833C13.621,71.532 13.426,71.227 13.297,70.923C13.168,70.618 13.273,70.368 13.621,70.173C13.969,69.973 14.602,69.88 15.512,69.88L16.816,70.075C17.684,70.247 18.762,70.77 20.043,71.638C21.324,72.509 22.379,73.638 23.203,75.028C24.203,76.809 25.406,78.165 26.82,79.102C28.234,80.036 29.656,80.501 31.09,80.501C32.522,80.501 33.762,80.391 34.805,80.177C35.848,79.958 36.824,79.634 37.738,79.2C38.129,76.286 39.195,74.048 40.93,72.485C38.453,72.223 36.227,71.833 34.25,71.309C32.272,70.79 30.23,69.942 28.125,68.766C26.016,67.595 24.266,66.138 22.875,64.403C21.488,62.665 20.344,60.38 19.457,57.559C18.566,54.731 18.121,51.473 18.121,47.782C18.121,42.524 19.836,38.048 23.27,34.352C21.66,30.399 21.812,25.97 23.727,21.059C24.984,20.665 26.855,20.962 29.332,21.938C31.809,22.915 33.621,23.755 34.773,24.446C35.926,25.141 36.848,25.731 37.543,26.208C41.586,25.079 45.758,24.513 50.059,24.513C54.359,24.513 58.531,25.079 62.574,26.208L65.051,24.641C66.742,23.598 68.742,22.645 71.047,21.774C73.348,20.907 75.109,20.669 76.328,21.059C78.281,25.97 78.457,30.399 76.848,34.356C80.281,38.048 81.996,42.524 81.996,47.782C81.996,51.473 81.551,54.743 80.66,57.591C79.77,60.438 78.621,62.72 77.207,64.434C75.793,66.153 74.035,67.595 71.926,68.77C69.82,69.942 67.777,70.79 65.801,71.309C63.824,71.833 61.598,72.223 59.121,72.485C61.379,74.442 62.508,77.524 62.508,81.739L62.508,95.493C62.508,96.274 62.781,96.927 63.324,97.446C63.867,97.966 64.723,98.122 65.898,97.903C75.98,94.555 84.203,88.528 90.566,79.813C96.934,71.102 100.117,61.294 100.117,50.388C100.113,41.309 97.875,32.934 93.402,25.263Z" style="fill-rule:nonzero;"/>
    </g>
</svg>
