<?xml version="1.0" encoding="UTF-8" standalone="no"?>
<!DOCTYPE svg PUBLIC "-//W3C//DTD SVG 1.1//EN" "http://www.w3.org/Graphics/SVG/1.1/DTD/svg11.dtd">
<svg width="100%" height="100%" viewBox="0 0 200 200" version="1.1" xmlns="http://www.w3.org/2000/svg" xmlns:xlink="http://www.w3.org/1999/xlink" xml:space="preserve" xmlns:serif="http://www.serif.com/" style="fill-rule:evenodd;clip-rule:evenodd;stroke-linejoin:round;stroke-miterlimit:1.41421;">
    <g transform="matrix(2.17909,0,0,2.17909,0,-0.49247)">
        <path d="M12.516,66.969C9.039,66.969 6.082,68.187 3.648,70.621C1.219,73.055 0,76.008 0,79.484C0,82.961 1.215,85.914 3.648,88.347C6.082,90.781 9.039,92 12.516,92C15.992,92 18.945,90.781 21.379,88.347C23.812,85.914 25.027,82.961 25.027,79.484C25.027,76.008 23.812,73.055 21.379,70.621C18.945,68.187 15.992,66.969 12.516,66.969Z" style="fill-rule:nonzero;"/>
        <path d="M41.324,50.676C36.414,45.722 30.785,41.777 24.441,38.847C18.098,35.914 11.449,34.164 4.496,33.597L4.172,33.597C3.043,33.597 2.105,33.969 1.367,34.707C0.457,35.488 0,36.508 0,37.769L0,46.57C0,47.656 0.359,48.59 1.074,49.371C1.793,50.156 2.695,50.59 3.781,50.676C13.73,51.633 22.234,55.64 29.297,62.699C36.359,69.762 40.367,78.265 41.324,88.219C41.41,89.305 41.844,90.207 42.625,90.922C43.41,91.64 44.344,92 45.43,92L54.227,92C55.488,92 56.508,91.543 57.293,90.629C58.117,89.762 58.488,88.719 58.402,87.5C57.836,80.551 56.086,73.902 53.152,67.558C50.219,61.215 46.277,55.586 41.324,50.676Z" style="fill-rule:nonzero;"/>
        <path d="M83.949,54.945C79.301,44.535 72.914,35.293 64.789,27.211C56.703,19.086 47.461,12.699 37.055,8.047C26.648,3.398 15.75,0.793 4.367,0.226L4.172,0.226C3.043,0.226 2.086,0.617 1.305,1.398C0.434,2.183 0,3.183 0,4.398L0,13.719C0,14.805 0.379,15.75 1.141,16.555C1.902,17.359 2.824,17.781 3.909,17.824C13.254,18.39 22.129,20.605 30.535,24.472C38.945,28.34 46.242,33.371 52.438,39.562C58.629,45.754 63.656,53.055 67.523,61.461C71.391,69.871 73.586,78.746 74.105,88.09C74.152,89.176 74.574,90.097 75.379,90.859C76.184,91.617 77.148,92 78.277,92L87.598,92C88.816,92 89.812,91.566 90.598,90.695C91.465,89.828 91.855,88.805 91.77,87.633C91.207,76.246 88.598,65.351 83.949,54.945Z" style="fill-rule:nonzero;"/>
    </g>
</svg>
